<svg xmlns="http://www.w3.org/2000/svg" viewBox="0 0 24 24" fill="none" aria-hidden="true">
	<path fill="#2E6B78" d="M9.38 21.646A10 10 0 0 0 12 22l.141-.001a3 3 0 0 0 2.515-1.425c.542-.876.6-1.953.153-2.88l-.198-.415c-.453-.942-.097-1.796.388-2.281s1.341-.841 2.28-.388h.001l.413.199a2.99 2.99 0 0 0 2.881-.153A3 3 0 0 0 22 12.141a10 10 0 0 0-.353-2.76c-1.038-3.827-4.353-6.754-8.246-7.285c-3.149-.427-6.241.602-8.471 2.833S1.666 10.247 2.096 13.4c.53 3.894 3.458 7.208 7.284 8.246"/>
	<circle cx="15.5" cy="7.5" r="1.35" fill="#FBF8F3"/>
	<circle cx="10.5" cy="6.5" r="1.35" fill="#F2B8B2"/>
	<circle cx="7.5" cy="10.5" r="1.35" fill="#BFE7D6"/>
	<circle cx="7.5" cy="15.5" r="1.35" fill="#FBF8F3"/>
</svg>
